<?xml version="1.0" standalone="no"?>
<svg xmlns:xlink="http://www.w3.org/1999/xlink" id="wave" style="transform:rotate(0deg); transition: 0.3s" viewBox="0 0 1440 190" version="1.1" xmlns="http://www.w3.org/2000/svg"><defs><linearGradient id="sw-gradient-0" x1="0" x2="0" y1="1" y2="0"><stop stop-color="rgba(230, 56, 236, 1)" offset="0%"/><stop stop-color="rgba(251, 86, 7, 1)" offset="100%"/></linearGradient></defs><path style="transform:translate(0, 0px); opacity:1" fill="url(#sw-gradient-0)" d="M0,57L40,53.8C80,51,160,44,240,38C320,32,400,25,480,31.7C560,38,640,57,720,69.7C800,82,880,89,960,95C1040,101,1120,108,1200,104.5C1280,101,1360,89,1440,85.5C1520,82,1600,89,1680,82.3C1760,76,1840,57,1920,60.2C2000,63,2080,89,2160,82.3C2240,76,2320,38,2400,25.3C2480,13,2560,25,2640,31.7C2720,38,2800,38,2880,44.3C2960,51,3040,63,3120,66.5C3200,70,3280,63,3360,57C3440,51,3520,44,3600,57C3680,70,3760,101,3840,117.2C3920,133,4000,133,4080,123.5C4160,114,4240,95,4320,72.8C4400,51,4480,25,4560,25.3C4640,25,4720,51,4800,66.5C4880,82,4960,89,5040,79.2C5120,70,5200,44,5280,38C5360,32,5440,44,5520,66.5C5600,89,5680,120,5720,136.2L5760,152L5760,190L5720,190C5680,190,5600,190,5520,190C5440,190,5360,190,5280,190C5200,190,5120,190,5040,190C4960,190,4880,190,4800,190C4720,190,4640,190,4560,190C4480,190,4400,190,4320,190C4240,190,4160,190,4080,190C4000,190,3920,190,3840,190C3760,190,3680,190,3600,190C3520,190,3440,190,3360,190C3280,190,3200,190,3120,190C3040,190,2960,190,2880,190C2800,190,2720,190,2640,190C2560,190,2480,190,2400,190C2320,190,2240,190,2160,190C2080,190,2000,190,1920,190C1840,190,1760,190,1680,190C1600,190,1520,190,1440,190C1360,190,1280,190,1200,190C1120,190,1040,190,960,190C880,190,800,190,720,190C640,190,560,190,480,190C400,190,320,190,240,190C160,190,80,190,40,190L0,190Z"/></svg>